<svg width="1374" height="444" viewBox="0 0 1374 444" fill="none" xmlns="http://www.w3.org/2000/svg">
<path d="M1324.54 225.541C1324.19 225.541 1324.19 225.541 1323.84 225.189L1319.27 220.622L1317.16 222.73C1316.11 223.784 1315.05 224.135 1313.65 224.135C1311.19 224.135 1308.73 222.027 1308.73 219.216C1308.73 216.757 1310.84 214.297 1313.65 214.297C1315.05 214.297 1316.11 214.649 1317.16 215.703L1319.27 217.811L1322.43 214.649C1322.78 214.297 1323.49 214.297 1323.84 214.649C1324.19 215 1324.19 215.703 1323.84 216.054L1320.68 219.216L1325.24 223.784C1325.59 224.135 1325.59 224.838 1325.24 225.189C1324.89 225.541 1324.89 225.541 1324.54 225.541ZM1314 216.405C1312.24 216.405 1310.84 217.811 1310.84 219.568C1310.84 221.324 1312.24 222.73 1314 222.73C1314.7 222.73 1315.4 222.378 1316.11 221.676L1318.22 219.568L1316.11 217.459C1315.4 216.757 1314.7 216.405 1314 216.405Z" fill="#F5CB3E"/>
<path d="M1337.19 225.541C1336.84 225.541 1336.84 225.541 1336.49 225.189C1336.13 224.838 1336.13 224.135 1336.49 223.784L1341.05 219.216L1337.89 216.054L1339.3 214.649L1342.46 217.811L1344.57 215.703C1345.62 214.649 1346.68 214.297 1348.08 214.297C1350.54 214.297 1353 216.405 1353 219.216C1353 221.676 1350.89 224.135 1348.08 224.135C1346.68 224.135 1345.62 223.784 1344.57 222.73L1342.46 220.622L1337.89 225.189C1337.54 225.541 1337.54 225.541 1337.19 225.541ZM1343.51 219.568L1345.62 221.676C1346.32 222.378 1347.03 222.73 1347.73 222.73C1349.49 222.73 1350.89 221.324 1350.89 219.568C1350.89 217.811 1349.49 216.405 1347.73 216.405C1347.03 216.405 1346.32 216.757 1345.62 217.108L1343.51 219.568Z" fill="#F5CB3E"/>
<path d="M1336.49 226.243C1336.13 226.243 1336.13 226.243 1335.78 225.892L1324.54 214.649C1324.19 214.297 1324.19 213.595 1324.54 213.243C1324.89 212.892 1325.59 212.892 1325.95 213.243L1337.19 224.487C1337.54 224.838 1337.54 225.541 1337.19 225.892C1336.84 225.892 1336.84 226.243 1336.49 226.243Z" fill="#F5CB3E"/>
<path d="M1325.24 226.243C1324.89 226.243 1324.89 226.243 1324.54 225.892C1324.19 225.541 1324.19 224.838 1324.54 224.487L1335.78 213.243C1336.13 212.892 1336.84 212.892 1337.19 213.243C1337.54 213.595 1337.54 214.297 1337.19 214.649L1325.95 225.892C1325.59 225.892 1325.24 226.243 1325.24 226.243Z" fill="#F5CB3E"/>
<path d="M1342.11 220.271C1341.76 220.271 1341.76 220.271 1341.4 219.919L1330.16 208.676C1329.81 208.325 1329.81 207.622 1330.16 207.271C1330.51 206.919 1331.22 206.919 1331.57 207.271L1342.81 218.514C1343.16 218.865 1343.16 219.568 1342.81 219.919C1342.81 220.271 1342.46 220.271 1342.11 220.271Z" fill="#F5CB3E"/>
<path d="M1330.86 231.865C1330.51 231.865 1330.51 231.865 1330.16 231.513L1318.92 220.27C1318.57 219.919 1318.57 219.216 1318.92 218.865L1330.16 207.622C1330.51 207.27 1331.22 207.27 1331.57 207.622L1342.81 218.865C1343.16 219.216 1343.16 219.919 1342.81 220.27L1331.57 231.513C1331.22 231.865 1331.22 231.865 1330.86 231.865ZM1320.68 219.567L1330.86 229.757L1341.05 219.567L1330.86 209.378L1320.68 219.567Z" fill="#F5CB3E"/>
<path d="M1325.24 214.649C1324.89 214.649 1324.89 214.649 1324.54 214.297L1321.73 211.486C1320.68 210.432 1320.32 209.378 1320.32 207.973C1320.32 206.568 1320.68 205.514 1321.73 204.459C1323.49 202.703 1326.65 202.703 1328.76 204.459L1331.57 207.271C1331.57 207.271 1331.92 207.622 1331.92 207.973C1331.92 208.324 1331.92 208.324 1331.57 208.676L1325.95 214.297C1325.59 214.649 1325.24 214.649 1325.24 214.649ZM1324.89 204.811C1324.19 204.811 1323.13 205.162 1322.78 205.865C1322.08 206.568 1321.73 207.27 1321.73 207.973C1321.73 208.676 1322.08 209.73 1322.78 210.081L1325.24 212.541L1329.81 207.973L1327.35 205.514C1326.65 205.162 1325.95 204.811 1324.89 204.811Z" fill="#F5CB3E"/>
<path d="M1336.49 214.649C1336.13 214.649 1336.13 214.649 1335.78 214.297L1330.16 208.676C1330.16 208.676 1329.81 208.324 1329.81 207.973C1329.81 207.622 1329.81 207.622 1330.16 207.271L1332.97 204.459C1334.73 202.703 1337.89 202.703 1340 204.459C1341.76 206.216 1341.76 209.378 1340 211.486L1337.19 214.297C1337.19 214.649 1336.84 214.649 1336.49 214.649ZM1332.27 208.324L1336.84 212.892L1339.3 210.432C1340.35 209.378 1340.35 207.27 1339.3 205.865C1338.24 204.459 1336.13 204.811 1334.73 205.865L1332.27 208.324Z" fill="#F5CB3E"/>
<path d="M1324.89 236.081C1323.49 236.081 1322.43 235.73 1321.38 234.676C1320.32 233.622 1319.97 232.568 1319.97 231.162C1319.97 229.757 1320.32 228.703 1321.38 227.649L1324.19 224.838C1324.54 224.487 1325.24 224.487 1325.59 224.838L1331.22 230.46C1331.22 230.46 1331.57 230.811 1331.57 231.162C1331.57 231.514 1331.57 231.514 1331.22 231.865L1328.4 234.676C1327.7 235.379 1326.3 236.081 1324.89 236.081ZM1325.24 226.595L1322.78 229.054C1322.08 229.757 1321.73 230.46 1321.73 231.162C1321.73 231.865 1322.08 232.919 1322.78 233.271C1323.84 234.676 1325.95 234.325 1327.35 233.271L1329.81 230.811L1325.24 226.595Z" fill="#F5CB3E"/>
<path d="M1336.84 236.081C1335.43 236.081 1334.38 235.73 1333.32 234.676L1330.51 231.865C1330.51 231.865 1330.16 231.514 1330.16 231.162C1330.16 230.811 1330.16 230.811 1330.51 230.46L1336.13 224.838C1336.49 224.487 1337.19 224.487 1337.54 224.838L1340.35 227.649C1342.11 229.406 1342.11 232.568 1340.35 234.676C1339.3 235.379 1337.89 236.081 1336.84 236.081ZM1332.27 230.811L1334.73 233.271C1336.13 234.325 1337.89 234.676 1339.3 233.271C1340.35 232.217 1340.35 230.108 1339.3 228.703L1336.84 226.244L1332.27 230.811Z" fill="#F5CB3E"/>
<path d="M1357.92 173.189H1303.81C1295.03 173.189 1288 166.162 1288 157.378V70.2429C1288 61.4591 1295.03 54.4321 1303.81 54.4321H1357.92C1366.7 54.4321 1373.73 61.4591 1373.73 70.2429V157.378C1373.73 166.162 1366.7 173.189 1357.92 173.189ZM1303.81 56.1889C1296.08 56.1889 1289.76 62.5132 1289.76 70.2429V157.378C1289.76 165.108 1296.08 171.432 1303.81 171.432H1357.92C1365.65 171.432 1371.97 165.108 1371.97 157.378V70.2429C1371.97 62.5132 1365.65 56.1889 1357.92 56.1889H1303.81Z" fill="#F5CB3E"/>
<path d="M1339.65 173.188H1321.73C1312.95 173.188 1305.92 166.161 1305.92 157.378V70.2426C1305.92 61.4588 1312.95 54.4318 1321.73 54.4318H1339.65C1348.43 54.4318 1355.46 61.4588 1355.46 70.2426V157.378C1355.81 166.161 1348.43 173.188 1339.65 173.188ZM1322.08 56.1886C1314.35 56.1886 1308.03 62.5129 1308.03 70.2426V157.378C1308.03 165.107 1314.35 171.432 1322.08 171.432H1340C1347.73 171.432 1354.05 165.107 1354.05 157.378V70.2426C1354.05 62.5129 1347.73 56.1886 1340 56.1886H1322.08Z" fill="#F5CB3E"/>
<path d="M1330.86 173.189C1330.51 173.189 1330.16 172.837 1330.16 172.486V55.4862C1330.16 55.1348 1330.51 54.7835 1330.86 54.7835C1331.22 54.7835 1331.57 55.1348 1331.57 55.4862V172.486C1331.57 172.837 1331.22 173.189 1330.86 173.189Z" fill="#F5CB3E"/>
<path d="M1345.62 56.1897H1316.11C1315.76 56.1897 1315.41 55.8384 1315.41 55.487V43.5411C1315.41 43.1897 1315.76 42.8384 1316.11 42.8384H1345.62C1345.97 42.8384 1346.32 43.1897 1346.32 43.5411V55.487C1346.68 55.8384 1346.32 56.1897 1345.62 56.1897ZM1316.81 54.4329H1344.57V44.2438H1316.81V54.4329Z" fill="#F5CB3E"/>
<path d="M1345.62 185.135H1316.11C1315.76 185.135 1315.41 184.784 1315.41 184.432V172.486C1315.41 172.135 1315.76 171.784 1316.11 171.784H1345.62C1345.97 171.784 1346.32 172.135 1346.32 172.486V184.432C1346.68 184.784 1346.32 185.135 1345.62 185.135ZM1316.81 183.378H1344.57V173.189H1316.81V183.378Z" fill="#F5CB3E"/>
<path d="M1330.86 44.2432C1330.51 44.2432 1330.16 43.8918 1330.16 43.5405V-18.2973C1330.16 -18.6487 1330.51 -19 1330.86 -19C1331.22 -19 1331.57 -18.6487 1331.57 -18.2973V43.1891C1331.57 43.8918 1331.22 44.2432 1330.86 44.2432Z" fill="#F5CB3E"/>
<path d="M1330.86 209.026C1330.51 209.026 1330.16 208.675 1330.16 208.324V184.432C1330.16 184.081 1330.51 183.729 1330.86 183.729C1331.22 183.729 1331.57 184.081 1331.57 184.432V208.324C1331.92 208.675 1331.22 209.026 1330.86 209.026Z" fill="#F5CB3E"/>
<path d="M1330.86 249.432C1330.51 249.432 1330.16 249.081 1330.16 248.729V230.81C1330.16 230.459 1330.51 230.108 1330.86 230.108C1331.22 230.108 1331.57 230.459 1331.57 230.81V248.729C1331.92 249.081 1331.22 249.432 1330.86 249.432Z" fill="#F5CB3E"/>
<path d="M1330.87 257.513C1328.05 257.513 1325.95 255.405 1325.95 252.594C1325.95 249.783 1328.05 247.675 1330.87 247.675C1333.68 247.675 1335.78 249.783 1335.78 252.594C1335.78 255.405 1333.68 257.513 1330.87 257.513ZM1330.86 249.432C1329.11 249.432 1327.7 250.837 1327.7 252.594C1327.7 254.351 1329.11 255.756 1330.87 255.756C1332.62 255.756 1334.03 254.351 1334.03 252.594C1334.03 250.837 1332.62 249.432 1330.86 249.432Z" fill="#F5CB3E"/>
<path d="M1335.78 262.783H1325.95C1325.59 262.783 1325.24 262.432 1325.24 262.081V256.811C1325.24 256.459 1325.59 256.108 1325.95 256.108H1335.78C1336.14 256.108 1336.49 256.459 1336.49 256.811V262.081C1336.49 262.432 1336.14 262.783 1335.78 262.783ZM1327 261.027H1335.08V257.513H1327V261.027Z" fill="#F5CB3E"/>
<path d="M1325.95 280C1325.59 280 1325.24 279.649 1325.24 279.297V262.081C1325.24 261.729 1325.59 261.378 1325.95 261.378C1326.3 261.378 1326.65 261.73 1326.65 262.081V279.297C1327 279.649 1326.65 280 1325.95 280Z" fill="#F5CB3E"/>
<path d="M1330.86 280C1330.51 280 1330.16 279.649 1330.16 279.297V262.081C1330.16 261.73 1330.51 261.378 1330.86 261.378C1331.22 261.378 1331.57 261.73 1331.57 262.081V279.297C1331.92 279.649 1331.22 280 1330.86 280Z" fill="#F5CB3E"/>
<path d="M1335.78 280C1335.43 280 1335.08 279.649 1335.08 279.297V262.081C1335.08 261.73 1335.43 261.378 1335.78 261.378C1336.14 261.378 1336.49 261.729 1336.49 262.081L1336.49 279.297C1336.49 279.649 1336.14 280 1335.78 280Z" fill="#F5CB3E"/>
<path d="M46.5848 244.837C20.8947 244.837 0 226.682 0 204.418C0 182.153 20.8947 163.999 46.5848 163.999C72.275 163.999 93.1695 182.153 93.1695 204.418C93.1695 226.682 72.275 244.837 46.5848 244.837ZM46.5848 165.711C21.9223 165.711 1.71268 183.181 1.71268 204.418C1.71268 225.655 21.9223 243.124 46.5848 243.124C71.2474 243.124 91.4568 225.655 91.4568 204.418C91.4568 183.181 71.2474 165.711 46.5848 165.711Z" fill="#F5CB3E"/>
<path d="M46.5848 244.837C45.8997 244.837 15.0713 234.903 15.0713 204.418C15.0713 175.987 46.2423 164.341 46.5848 163.999C46.9274 163.999 46.927 163.998 47.2696 163.998C47.6121 163.998 78.4403 176.33 78.4403 204.418C78.0978 235.246 46.9274 244.837 46.5848 244.837ZM46.5848 165.711C43.502 167.081 16.784 178.385 16.784 204.418C16.784 232.506 43.8445 242.097 46.5848 243.124C49.3251 242.097 76.3851 232.506 76.3851 204.418C76.3851 179.07 49.6676 167.081 46.5848 165.711Z" fill="#F5CB3E"/>
<path d="M46.5848 244.837L46.2422 244.836C45.5571 244.494 32.5407 234.903 32.5407 204.417C32.5407 175.987 45.8996 164.683 46.2422 164.341C46.5847 163.998 46.9272 163.998 47.2697 164.341C47.9548 164.683 60.9711 176.672 60.9711 204.417C60.9711 234.903 47.6123 244.151 47.2697 244.836C46.9272 244.836 46.5848 244.837 46.5848 244.837ZM46.5847 166.053C44.187 168.451 33.9109 180.097 33.9109 204.417C33.9109 230.792 44.187 240.726 46.5847 242.781C48.9825 240.726 59.2585 230.45 59.2585 204.417C59.2585 180.782 48.9825 168.794 46.5847 166.053Z" fill="#F5CB3E"/>
<path d="M56.8605 166.739H55.8328C49.6672 165.711 43.159 165.711 37.3359 166.739H36.3084C35.9658 166.739 35.6232 166.397 35.6232 166.054V158.861C35.6232 157.148 36.9934 155.778 38.706 155.778H54.8052C56.5179 155.778 57.888 157.148 57.888 158.861V165.711C57.5455 166.397 57.203 166.739 56.8605 166.739ZM37.3359 165.026C43.159 163.999 50.0097 163.999 56.1754 165.026V158.861C56.1754 158.176 55.4903 157.491 54.8052 157.491H38.706C38.021 157.491 37.3359 158.176 37.3359 158.861V165.026Z" fill="#F5CB3E"/>
<path d="M54.4635 253.401H38.3643C36.6516 253.401 35.2815 252.031 35.2815 250.318V243.125C35.2815 242.782 35.6241 242.44 35.9666 242.44H36.9942C43.1598 243.467 49.668 243.467 55.4911 242.44H56.5187C56.8613 242.44 57.2038 242.782 57.2038 243.125V250.318C57.5463 252.031 56.1762 253.401 54.4635 253.401ZM37.3368 244.152V250.318C37.3368 251.003 38.0218 251.688 38.7069 251.688H54.8061C55.4911 251.688 56.1762 251.003 56.1762 250.318V244.152C50.0106 245.18 43.5024 245.18 37.3368 244.152Z" fill="#F5CB3E"/>
<path d="M46.5847 285.942C46.2421 285.942 45.8996 285.599 45.8996 285.257V252.716C45.8996 252.373 46.2421 252.031 46.5847 252.031C46.9272 252.031 47.2697 252.373 47.2697 252.716V285.257C47.2697 285.599 46.9272 285.942 46.5847 285.942Z" fill="#F5CB3E"/>
<path d="M46.5845 149.612C46.242 149.612 45.8994 148.536 45.8994 147.46V2.15266C45.8994 1.07632 46.242 0 46.5845 0C46.9271 0 47.2695 1.07632 47.2695 2.15266V146.383C47.2695 148.536 46.9271 149.612 46.5845 149.612Z" fill="#F5CB3E"/>
<path d="M46.5848 373.63C20.8947 373.63 0 355.476 0 333.211C0 310.947 20.8947 292.792 46.5848 292.792C72.275 292.792 93.1695 310.947 93.1695 333.211C93.1695 355.476 72.275 373.63 46.5848 373.63ZM46.5848 294.505C21.9223 294.505 1.71268 311.974 1.71268 333.211C1.71268 354.448 21.9223 371.918 46.5848 371.918C71.2474 371.918 91.4568 354.448 91.4568 333.211C91.4568 311.974 71.2474 294.505 46.5848 294.505Z" fill="#F5CB3E"/>
<path d="M46.5848 373.63C45.8997 373.63 15.0713 363.697 15.0713 333.211C15.0713 304.781 46.2423 293.135 46.5848 292.792C46.9274 292.792 46.927 292.792 47.2696 292.792C47.6121 292.792 78.4403 305.123 78.4403 333.211C78.0978 363.697 46.9274 373.288 46.5848 373.63ZM46.5848 294.505C43.502 295.875 16.784 307.178 16.784 333.211C16.784 361.299 43.8445 370.89 46.5848 371.918C49.3251 370.89 76.3851 361.299 76.3851 333.211C76.3851 307.863 49.6676 295.875 46.5848 294.505Z" fill="#F5CB3E"/>
<path d="M46.5848 373.63L46.2422 373.63C45.5571 373.287 32.5407 363.696 32.5407 333.211C32.5407 304.78 45.8996 293.477 46.2422 293.134C46.5847 292.791 46.9272 292.791 47.2697 293.134C47.9548 293.477 60.9711 305.465 60.9711 333.211C60.9711 363.696 47.6123 372.945 47.2697 373.63C46.9272 373.63 46.5848 373.63 46.5848 373.63ZM46.5847 294.847C44.187 297.244 33.9109 308.891 33.9109 333.211C33.9109 359.243 44.187 369.519 46.5847 371.575C48.9825 369.519 59.2585 359.243 59.2585 333.211C59.2585 309.233 48.9825 297.244 46.5847 294.847Z" fill="#F5CB3E"/>
<path d="M56.8605 295.19H55.8328C49.6672 294.162 43.159 294.162 37.3359 295.19H36.3084C35.9658 295.19 35.6232 294.847 35.6232 294.505V287.311C35.6232 285.599 36.9934 284.229 38.706 284.229H54.8052C56.5179 284.229 57.888 285.599 57.888 287.311V294.505C57.5455 294.847 57.203 295.19 56.8605 295.19ZM37.3359 293.477C43.159 292.449 50.0097 292.449 56.1754 293.477V287.311C56.1754 286.626 55.4903 285.941 54.8052 285.941H38.706C38.021 285.941 37.3359 286.626 37.3359 287.311V293.477Z" fill="#F5CB3E"/>
<path d="M54.4632 382.194H38.364C36.6513 382.194 35.2812 380.824 35.2812 379.111V371.918C35.2812 371.576 35.6237 371.233 35.9663 371.233H36.9938C43.1595 372.261 49.6676 372.261 55.4907 371.233H56.5184C56.8609 371.233 57.2034 371.576 57.2034 371.918V379.111C57.5459 380.824 56.1758 382.194 54.4632 382.194ZM37.3364 372.603V378.769C37.3364 379.454 38.0214 380.139 38.7065 380.139H54.8057C55.4908 380.139 56.1758 379.454 56.1758 378.769V372.603C50.0102 373.973 43.502 373.973 37.3364 372.603Z" fill="#F5CB3E"/>
<path d="M38.364 443.507C38.0215 443.507 37.679 443.165 37.679 442.822V427.751C37.679 427.408 38.0215 427.066 38.364 427.066C38.7065 427.066 39.0491 427.408 39.0491 427.751V442.822C39.0491 443.165 38.7065 443.507 38.364 443.507Z" fill="#F5CB3E"/>
<path d="M41.4465 443.508C41.1039 443.508 40.7614 443.165 40.7614 442.823V427.751C40.7614 427.409 41.1039 427.066 41.4465 427.066C41.789 427.066 42.1315 427.409 42.1315 427.751V442.823C42.474 443.165 42.1315 443.508 41.4465 443.508Z" fill="#F5CB3E"/>
<path d="M44.8719 443.508C44.5294 443.508 44.1868 443.165 44.1868 442.823V427.751C44.1868 427.409 44.5294 427.066 44.8719 427.066C45.2144 427.066 45.5569 427.409 45.5569 427.751V442.823C45.8995 443.165 45.2144 443.508 44.8719 443.508Z" fill="#F5CB3E"/>
<path d="M48.2972 443.508C47.9546 443.508 47.6121 443.165 47.6121 442.823V427.751C47.6121 427.409 47.9546 427.066 48.2972 427.066C48.6397 427.066 48.9822 427.409 48.9822 427.751V442.823C48.9822 443.165 48.6397 443.508 48.2972 443.508Z" fill="#F5CB3E"/>
<path d="M51.3806 443.508C51.038 443.508 50.6954 443.165 50.6954 442.823V427.751C50.6954 427.409 51.038 427.066 51.3806 427.066C51.7231 427.066 52.0656 427.409 52.0656 427.751V442.823C52.4081 443.165 52.0656 443.508 51.3806 443.508Z" fill="#F5CB3E"/>
<path d="M54.806 443.508C54.4635 443.508 54.1209 443.165 54.1209 442.823V427.751C54.1209 427.409 54.4635 427.066 54.806 427.066C55.1485 427.066 55.491 427.409 55.491 427.751V442.823C55.491 443.165 55.1485 443.508 54.806 443.508Z" fill="#F5CB3E"/>
<path d="M46.5847 406.514C46.2421 406.514 45.8996 406.171 45.8996 405.828V381.508C45.8996 381.166 46.2421 380.823 46.5847 380.823C46.9272 380.823 47.2697 381.166 47.2697 381.508V405.828C47.2697 406.171 46.9272 406.514 46.5847 406.514Z" fill="#F5CB3E"/>
<path d="M54.8058 428.436H38.364C38.0215 428.436 37.679 428.093 37.679 427.751V420.9C37.679 420.558 38.0215 420.215 38.364 420.215H54.8058C55.1483 420.215 55.4908 420.558 55.4908 420.9L55.491 427.751C55.491 428.094 55.1483 428.436 54.8058 428.436ZM39.0491 426.723H53.7781V421.585H39.0491V426.723Z" fill="#F5CB3E"/>
<path d="M46.5847 414.05C43.8444 414.05 41.7891 411.995 41.7891 409.255C41.7891 406.514 43.8444 404.459 46.5847 404.459C49.325 404.459 51.3802 406.514 51.3802 409.255C51.0376 411.995 48.9824 414.05 46.5847 414.05ZM46.5847 406.514C44.872 406.514 43.5018 407.884 43.5018 409.597C43.5018 411.31 44.872 412.68 46.5847 412.68C48.2974 412.68 49.6675 411.31 49.6675 409.597C49.3249 407.884 48.2974 406.514 46.5847 406.514Z" fill="#F5CB3E"/>
<path d="M46.5849 157.148C43.8446 157.148 41.7893 155.093 41.7893 152.353C41.7893 149.613 43.8446 147.557 46.5849 147.557C49.3251 147.557 51.3803 149.613 51.3803 152.353C51.3803 155.093 48.9826 157.148 46.5849 157.148ZM46.5845 149.612C44.8718 149.612 43.502 150.983 43.502 152.695C43.502 154.408 44.8722 155.778 46.5849 155.778C48.2975 155.778 49.6677 154.408 49.6677 152.695C49.3251 150.983 48.2972 149.612 46.5845 149.612Z" fill="#F5CB3E"/>
<path d="M46.5849 421.585C43.8446 421.585 41.7893 419.53 41.7893 416.79C41.7893 414.05 43.8446 411.994 46.5849 411.994C49.3251 411.994 51.3803 414.05 51.3803 416.79C51.3803 419.53 48.9826 421.585 46.5849 421.585ZM46.5847 414.05C44.872 414.05 43.502 415.42 43.502 417.132C43.502 418.845 44.8722 420.215 46.5849 420.215C48.2975 420.215 49.6677 418.845 49.6677 417.132C49.3251 415.42 48.2974 414.05 46.5847 414.05Z" fill="#F5CB3E"/>
<path d="M154.585 47.8368C128.895 47.8368 108 29.6825 108 7.41769C108 -14.8471 128.895 -33.0015 154.585 -33.0015C180.275 -33.0015 201.17 -14.8471 201.17 7.41769C201.17 29.6825 180.275 47.8368 154.585 47.8368ZM154.585 -31.2888C129.922 -31.2888 109.713 -13.8195 109.713 7.41769C109.713 28.6549 129.922 46.1242 154.585 46.1242C179.247 46.1242 199.457 28.6549 199.457 7.41769C199.457 -13.8195 179.247 -31.2888 154.585 -31.2888Z" fill="#F5CB3E"/>
<path d="M154.585 47.8368C153.9 47.8368 123.071 37.9033 123.071 7.41763C123.071 -21.0128 154.242 -32.6589 154.585 -33.0015C154.927 -33.0015 154.927 -33.0015 155.27 -33.0015C155.612 -33.0015 186.44 -20.6703 186.44 7.41763C186.098 38.2458 154.927 47.8368 154.585 47.8368ZM154.585 -31.2888C151.502 -29.9186 124.784 -18.615 124.784 7.41763C124.784 35.5055 151.845 45.0966 154.585 46.1242C157.325 45.0966 184.385 35.5055 184.385 7.41763C184.385 -17.93 157.668 -29.9186 154.585 -31.2888Z" fill="#F5CB3E"/>
<path d="M154.585 47.8368L154.242 47.8363C153.557 47.4938 140.541 37.9028 140.541 7.41721C140.541 -21.0132 153.9 -32.3169 154.242 -32.6594C154.585 -33.002 154.927 -33.002 155.27 -32.6594C155.955 -32.3169 168.971 -20.3281 168.971 7.41721C168.971 37.9028 155.612 47.1513 155.27 47.8363C154.927 47.8363 154.585 47.8368 154.585 47.8368ZM154.585 -30.9467C152.187 -28.549 141.911 -16.9028 141.911 7.41721C141.911 33.7924 152.187 43.7259 154.585 45.7811C156.982 43.7259 167.258 33.4499 167.258 7.41721C167.258 -16.2177 156.982 -28.2065 154.585 -30.9467Z" fill="#F5CB3E"/>
<path d="M164.86 -30.2609H163.833C157.667 -31.2885 151.159 -31.2885 145.336 -30.2609H144.308C143.966 -30.2609 143.623 -30.6034 143.623 -30.946V-38.1392C143.623 -39.8519 144.993 -41.222 146.706 -41.222H162.805C164.518 -41.222 165.888 -39.8519 165.888 -38.1392V-31.2885C165.545 -30.6034 165.203 -30.2609 164.86 -30.2609ZM145.336 -31.9736C151.159 -33.0012 158.01 -33.0012 164.175 -31.9736V-38.1392C164.175 -38.8243 163.49 -39.5094 162.805 -39.5094H146.706C146.021 -39.5094 145.336 -38.8243 145.336 -38.1392V-31.9736Z" fill="#F5CB3E"/>
<path d="M162.464 56.4007H146.364C144.652 56.4007 143.282 55.0305 143.282 53.3178V46.1246C143.282 45.7821 143.624 45.4395 143.967 45.4395H144.994C151.16 46.4672 157.668 46.4672 163.491 45.4395H164.519C164.861 45.4395 165.204 45.7821 165.204 46.1246V53.3178C165.546 55.0305 164.176 56.4007 162.464 56.4007ZM145.337 47.1522V53.3178C145.337 54.0029 146.022 54.688 146.707 54.688H162.806C163.491 54.688 164.176 54.0029 164.176 53.3178V47.1522C158.011 48.1798 151.502 48.1798 145.337 47.1522Z" fill="#F5CB3E"/>
<path d="M154.585 88.9416C154.242 88.9416 153.9 88.5991 153.9 88.2565V55.7157C153.9 55.3732 154.242 55.0306 154.585 55.0306C154.927 55.0306 155.27 55.3732 155.27 55.7157V88.2565C155.27 88.5991 154.927 88.9416 154.585 88.9416Z" fill="#F5CB3E"/>
<path d="M154.585 -47.3876C154.242 -47.3876 153.899 -48.464 153.899 -49.5403V-194.847C153.899 -195.924 154.242 -197 154.585 -197C154.927 -197 155.27 -195.924 155.27 -194.847V-50.6167C155.27 -48.4639 154.927 -47.3876 154.585 -47.3876Z" fill="#F5CB3E"/>
<path d="M154.585 176.63C128.895 176.63 108 158.476 108 136.211C108 113.946 128.895 95.7921 154.585 95.7921C180.275 95.7921 201.17 113.946 201.17 136.211C201.17 158.476 180.275 176.63 154.585 176.63ZM154.585 97.5048C129.922 97.5048 109.713 114.974 109.713 136.211C109.713 157.448 129.922 174.918 154.585 174.918C179.247 174.918 199.457 157.448 199.457 136.211C199.457 114.974 179.247 97.5048 154.585 97.5048Z" fill="#F5CB3E"/>
<path d="M154.585 176.63C153.9 176.63 123.071 166.697 123.071 136.211C123.071 107.781 154.242 96.1346 154.585 95.7921C154.927 95.7921 154.927 95.7917 155.27 95.7917C155.612 95.7917 186.44 108.123 186.44 136.211C186.098 166.697 154.927 176.288 154.585 176.63ZM154.585 97.5048C151.502 98.8749 124.784 110.178 124.784 136.211C124.784 164.299 151.845 173.89 154.585 174.918C157.325 173.89 184.385 164.299 184.385 136.211C184.385 110.863 157.668 98.8749 154.585 97.5048Z" fill="#F5CB3E"/>
<path d="M154.585 176.63L154.242 176.63C153.557 176.287 140.541 166.696 140.541 136.211C140.541 107.78 153.9 96.4766 154.242 96.134C154.585 95.7915 154.927 95.7915 155.27 96.134C155.955 96.4766 168.971 108.465 168.971 136.211C168.971 166.696 155.612 175.945 155.27 176.63C154.927 176.63 154.585 176.63 154.585 176.63ZM154.585 97.8467C152.187 100.244 141.911 111.891 141.911 136.211C141.911 162.243 152.187 172.519 154.585 174.575C156.982 172.519 167.258 162.243 167.258 136.211C167.258 112.233 156.982 100.244 154.585 97.8467Z" fill="#F5CB3E"/>
<path d="M164.86 98.1897H163.833C157.667 97.1621 151.159 97.1621 145.336 98.1897H144.308C143.966 98.1897 143.623 97.8472 143.623 97.5046V90.3114C143.623 88.5987 144.993 87.2286 146.706 87.2286H162.805C164.518 87.2286 165.888 88.5987 165.888 90.3114V97.5046C165.545 97.8472 165.203 98.1897 164.86 98.1897ZM145.336 96.4771C151.159 95.4494 158.01 95.4494 164.175 96.4771V90.3114C164.175 89.6263 163.49 88.9413 162.805 88.9413H146.706C146.021 88.9413 145.336 89.6263 145.336 90.3114V96.4771Z" fill="#F5CB3E"/>
<path d="M162.463 185.194H146.364C144.651 185.194 143.281 183.824 143.281 182.111V174.918C143.281 174.576 143.624 174.233 143.966 174.233H144.994C151.159 175.261 157.668 175.261 163.491 174.233H164.518C164.861 174.233 165.203 174.576 165.203 174.918V182.111C165.546 183.824 164.176 185.194 162.463 185.194ZM145.336 175.603V181.769C145.336 182.454 146.021 183.139 146.707 183.139H162.806C163.491 183.139 164.176 182.454 164.176 181.769V175.603C158.01 176.973 151.502 176.973 145.336 175.603Z" fill="#F5CB3E"/>
<path d="M146.364 246.507C146.021 246.507 145.679 246.165 145.679 245.822V230.751C145.679 230.408 146.021 230.066 146.364 230.066C146.707 230.066 147.049 230.408 147.049 230.751V245.822C147.049 246.165 146.707 246.507 146.364 246.507Z" fill="#F5CB3E"/>
<path d="M149.446 246.508C149.104 246.508 148.761 246.165 148.761 245.823V230.751C148.761 230.409 149.104 230.066 149.446 230.066C149.789 230.066 150.131 230.409 150.131 230.751V245.823C150.474 246.165 150.132 246.508 149.446 246.508Z" fill="#F5CB3E"/>
<path d="M152.872 246.508C152.529 246.508 152.187 246.165 152.187 245.823V230.751C152.187 230.409 152.529 230.066 152.872 230.066C153.214 230.066 153.557 230.409 153.557 230.751V245.823C153.899 246.165 153.214 246.508 152.872 246.508Z" fill="#F5CB3E"/>
<path d="M156.297 246.508C155.955 246.508 155.612 246.165 155.612 245.823V230.751C155.612 230.409 155.955 230.066 156.297 230.066C156.64 230.066 156.982 230.409 156.982 230.751V245.823C156.982 246.165 156.64 246.508 156.297 246.508Z" fill="#F5CB3E"/>
<path d="M159.381 246.508C159.038 246.508 158.695 246.165 158.695 245.823V230.751C158.695 230.409 159.038 230.066 159.381 230.066C159.723 230.066 160.066 230.409 160.066 230.751V245.823C160.408 246.165 160.066 246.508 159.381 246.508Z" fill="#F5CB3E"/>
<path d="M162.806 246.508C162.463 246.508 162.121 246.165 162.121 245.823V230.751C162.121 230.409 162.463 230.066 162.806 230.066C163.149 230.066 163.491 230.409 163.491 230.751V245.823C163.491 246.165 163.149 246.508 162.806 246.508Z" fill="#F5CB3E"/>
<path d="M154.585 209.514C154.242 209.514 153.9 209.171 153.9 208.828V184.508C153.9 184.166 154.242 183.823 154.585 183.823C154.927 183.823 155.27 184.166 155.27 184.508V208.828C155.27 209.171 154.927 209.514 154.585 209.514Z" fill="#F5CB3E"/>
<path d="M162.806 231.436H146.364C146.021 231.436 145.679 231.093 145.679 230.751V223.9C145.679 223.558 146.021 223.215 146.364 223.215H162.806C163.148 223.215 163.491 223.558 163.491 223.9L163.491 230.751C163.491 231.094 163.148 231.436 162.806 231.436ZM147.049 229.723H161.778V224.585H147.049V229.723Z" fill="#F5CB3E"/>
<path d="M154.585 217.05C151.844 217.05 149.789 214.995 149.789 212.255C149.789 209.514 151.844 207.459 154.585 207.459C157.325 207.459 159.38 209.514 159.38 212.255C159.038 214.995 156.982 217.05 154.585 217.05ZM154.585 209.514C152.872 209.514 151.502 210.884 151.502 212.597C151.502 214.31 152.872 215.68 154.585 215.68C156.297 215.68 157.667 214.31 157.667 212.597C157.325 210.884 156.297 209.514 154.585 209.514Z" fill="#F5CB3E"/>
<path d="M154.585 -39.8517C151.845 -39.8517 149.789 -41.9069 149.789 -44.6472C149.789 -47.3875 151.845 -49.4427 154.585 -49.4427C157.325 -49.4427 159.38 -47.3875 159.38 -44.6472C159.38 -41.9069 156.983 -39.8517 154.585 -39.8517ZM154.585 -47.3876C152.872 -47.3876 151.502 -46.0173 151.502 -44.3046C151.502 -42.592 152.872 -41.2218 154.585 -41.2218C156.298 -41.2218 157.668 -42.592 157.668 -44.3046C157.325 -46.0173 156.297 -47.3876 154.585 -47.3876Z" fill="#F5CB3E"/>
<path d="M154.585 224.585C151.845 224.585 149.789 222.53 149.789 219.79C149.789 217.05 151.845 214.994 154.585 214.994C157.325 214.994 159.38 217.05 159.38 219.79C159.38 222.53 156.983 224.585 154.585 224.585ZM154.585 217.05C152.872 217.05 151.502 218.42 151.502 220.132C151.502 221.845 152.872 223.215 154.585 223.215C156.298 223.215 157.668 221.845 157.668 220.132C157.325 218.42 156.297 217.05 154.585 217.05Z" fill="#F5CB3E"/>
</svg>
